# xmcd CD database file
#
# Track frame offsets:
#	150
#	22925
#	42385
#	65045
#
# Disc length: 1121 seconds
#
# Revision: 0
# Processed by: cddbd v1.5PL3 Copyright (c) Steve Scherf et al.
# Submitted via: CDex 1.50
#
DISCID=2f045f04
DTITLE=KOKIA - Tears in Love
DYEAR=1998
DGENRE=J-Pop
TTITLE0=Tears in Love
TTITLE1=Blue Night
TTITLE2=Tears in Love(Backing Track)
TTITLE3=Blue Night(Backing Track)
EXTD=YEAR: 1998
EXTT0=
EXTT1=
EXTT2=
EXTT3=
PLAYORDER=
